<svg xmlns="http://www.w3.org/2000/svg" viewBox="0 0 512 512">
  <defs>
    <linearGradient id="bg" x1="0" y1="0" x2="1" y2="1">
      <stop offset="0%" stop-color="#4f46e5"/>
      <stop offset="100%" stop-color="#1e1b8b"/>
    </linearGradient>
  </defs>
  <!-- Rounded square background (borderRadius ~18%) -->
  <rect width="512" height="512" rx="92" fill="url(#bg)"/>
  <!-- Book icon scaled from 20x20 viewBox to ~300x300, centered at 106,106 -->
  <g transform="translate(106, 106) scale(15)">
    <!-- Left page -->
    <path d="M10 4.5C10 4.5 7 4 3.5 4.5C2.7 4.6 2 5.3 2 6.1V15.5C5.5 14.5 10 15.5 10 15.5V4.5Z"
          fill="rgba(255,255,255,0.18)" stroke="white" stroke-width="1.1" stroke-linejoin="round"/>
    <!-- Right page -->
    <path d="M10 4.5C10 4.5 13 4 16.5 4.5C17.3 4.6 18 5.3 18 6.1V15.5C14.5 14.5 10 15.5 10 15.5V4.5Z"
          fill="rgba(255,255,255,0.10)" stroke="white" stroke-width="1.1" stroke-linejoin="round"/>
    <!-- Spine -->
    <line x1="10" y1="4" x2="10" y2="16" stroke="white" stroke-width="1" stroke-opacity="0.4"/>
    <!-- Left lines -->
    <line x1="3.5" y1="8"    x2="8.5" y2="7.5"  stroke="white" stroke-width="1.1" stroke-linecap="round" stroke-opacity="0.9"/>
    <line x1="3.5" y1="10.5" x2="8.5" y2="10"   stroke="white" stroke-width="1.1" stroke-linecap="round" stroke-opacity="0.9"/>
    <line x1="3.5" y1="13"   x2="7"   y2="12.7"  stroke="white" stroke-width="1.1" stroke-linecap="round" stroke-opacity="0.55"/>
    <!-- Right lines -->
    <line x1="11.5" y1="7.5"  x2="16.5" y2="8"    stroke="white" stroke-width="1.1" stroke-linecap="round" stroke-opacity="0.9"/>
    <line x1="11.5" y1="10"   x2="16.5" y2="10.5"  stroke="white" stroke-width="1.1" stroke-linecap="round" stroke-opacity="0.9"/>
    <line x1="13"   y1="12.7" x2="16.5" y2="13"    stroke="white" stroke-width="1.1" stroke-linecap="round" stroke-opacity="0.55"/>
  </g>
</svg>
